<svg xmlns="http://www.w3.org/2000/svg" width="100%" height="100%" viewBox="0 0 512 512">
  <circle cx="256" cy="256" r="256" fill="#ff9e24"/>
  <circle cx="256" cy="256" r="207.469" fill="#fff"/>
  <path d="M342.649 196.805c7.582-7.582 7.582-19.872 0-27.453-7.582-7.582-19.872-7.582-27.453 0l-73.605 73.605 27.453 27.453 73.605-73.605z" fill="#181818"/>
  <path d="M244.229 250.613L135.035 359.807c-4.738 4.738-4.738 12.42 0 17.159a12.101 12.101 0 0 0 8.579 3.554c3.105 0 6.211-1.185 8.579-3.554l109.194-109.194-17.158-17.159z" fill="#ee3840"/>
  <path d="M171.066 143.614c-7.582-7.582-19.872-7.582-27.453 0-7.582 7.582-7.582 19.872 0 27.453l99.343 99.343 27.453-27.453-99.343-99.343z" fill="#181818"/>
  <path d="M256 286.332c-16.725 0-30.332-13.607-30.332-30.332s13.607-30.332 30.332-30.332 30.332 13.607 30.332 30.332-13.607 30.332-30.332 30.332z" fill="#524e4d"/>
  <g fill="#7a7674">
    <path d="M115.261 268.133H97.062c-6.701 0-12.133-5.433-12.133-12.133s5.432-12.133 12.133-12.133h18.199c6.701 0 12.133 5.433 12.133 12.133s-5.432 12.133-12.133 12.133zM256 127.393c-6.701 0-12.133-5.433-12.133-12.133V97.062c0-6.7 5.432-12.133 12.133-12.133 6.701 0 12.133 5.433 12.133 12.133v18.199c0 6.699-5.432 12.132-12.133 12.132zM414.938 268.133h-18.199c-6.701 0-12.133-5.433-12.133-12.133s5.432-12.133 12.133-12.133h18.199c6.701 0 12.133 5.433 12.133 12.133s-5.432 12.133-12.133 12.133zM256 427.071c-6.701 0-12.133-5.433-12.133-12.133v-18.199c0-6.7 5.432-12.133 12.133-12.133 6.701 0 12.133 5.433 12.133 12.133v18.199c0 6.7-5.432 12.133-12.133 12.133z"/>
  </g>
</svg>
